<svg width="22" height="20" viewBox="0 0 22 20" fill="none" xmlns="http://www.w3.org/2000/svg">
<g clip-path="url(#clip0_84_468)">
<path d="M20.2826 5.07339C19.7085 4.33602 18.9067 3.85444 18.0254 3.7176C15.9005 3.38716 13.7626 3.1989 11.623 3.1524C11.5483 2.70837 11.1633 2.36987 10.6982 2.36987C10.2332 2.36987 9.85043 2.70614 9.77396 3.14748C7.5498 3.18415 5.32698 3.37419 3.11758 3.7176C2.23623 3.85488 1.43493 4.33602 0.86033 5.07339C0.305408 5.78571 0 6.69254 0 7.6271V15.5132C0 16.4477 0.305408 17.3546 0.86033 18.0664C1.43493 18.8038 2.23623 19.2854 3.11803 19.4222H3.12071C5.59304 19.8072 8.08192 19.9995 10.5717 19.9995C13.0619 19.9995 15.5526 19.8072 18.0254 19.4222C18.9067 19.2849 19.708 18.8038 20.2826 18.0664C20.8375 17.3546 21.1429 16.4477 21.1429 15.5132V7.62665C21.1429 6.69209 20.8375 5.78526 20.2826 5.07339ZM19.2649 15.5132C19.2649 16.5483 18.608 17.431 17.7369 17.5665C12.9832 18.3061 8.16285 18.3061 3.40957 17.5665H3.406C2.53493 17.4306 1.87806 16.5474 1.87806 15.5123V7.62621C1.87806 6.59104 2.53493 5.70835 3.40957 5.57197C5.78577 5.20217 8.1785 5.01749 10.5717 5.01749C12.9649 5.01749 15.3598 5.20261 17.7365 5.57241C18.6076 5.7079 19.2644 6.59059 19.2644 7.62576V15.5123L19.2649 15.5132Z" fill="#F27914"/>
<path d="M6.71857 8.11914C6.19987 8.11914 5.77954 8.53947 5.77954 9.05817V10.2212C5.77954 10.7399 6.19987 11.1603 6.71857 11.1603C7.23727 11.1603 7.6576 10.7399 7.6576 10.2212V9.05817C7.6576 8.53947 7.23727 8.11914 6.71857 8.11914Z" fill="#F27914"/>
<path d="M14.4244 8.11914C13.9057 8.11914 13.4854 8.53947 13.4854 9.05817V10.2212C13.4854 10.7399 13.9057 11.1603 14.4244 11.1603C14.9431 11.1603 15.3634 10.7399 15.3634 10.2212V9.05817C15.3634 8.53947 14.9431 8.11914 14.4244 8.11914Z" fill="#F27914"/>
<path d="M10.9142 1.85335C11.4189 1.73422 11.7315 1.22847 11.6124 0.723721C11.4933 0.218977 10.9875 -0.0936241 10.4828 0.0255063C9.97802 0.144637 9.66542 0.650387 9.78455 1.15513C9.90368 1.65987 10.4094 1.97248 10.9142 1.85335Z" fill="#F27914"/>
<path d="M12.0101 13.9773C10.6566 14.7151 9.52705 14.1736 9.28559 14.0395C8.90103 13.7287 8.33627 13.7689 8.00001 14.1396C7.65167 14.5237 7.68119 15.118 8.06529 15.4659L8.09973 15.4972C8.13505 15.5294 8.17261 15.5585 8.21241 15.5849C8.27099 15.6238 9.22164 16.2364 10.5922 16.2364C11.2786 16.2364 12.0705 16.0825 12.9085 15.626C13.3637 15.3778 13.5318 14.8072 13.2836 14.352C13.0354 13.8968 12.4649 13.7287 12.0097 13.9769L12.0101 13.9773Z" fill="#F27914"/>
</g>
<defs>
<clipPath id="clip0_84_468">
<rect width="21.1429" height="20" fill="white"/>
</clipPath>
</defs>
</svg>
