<svg width="12" height="11" viewBox="0 0 12 11" fill="none" xmlns="http://www.w3.org/2000/svg">
<g clip-path="url(#clip0_84_655)">
<path d="M11.4318 2.7904C11.1082 2.38485 10.6563 2.11998 10.1595 2.04472C8.96188 1.86297 7.75693 1.75943 6.55098 1.73386C6.50889 1.48964 6.29189 1.30347 6.02978 1.30347C5.76767 1.30347 5.55194 1.48841 5.50884 1.73115C4.25525 1.75132 3.00242 1.85584 1.75714 2.04472C1.26039 2.12022 0.80876 2.38485 0.484903 2.7904C0.172136 3.18218 0 3.68093 0 4.19494V8.53228C0 9.04628 0.172136 9.54504 0.484903 9.93657C0.80876 10.3421 1.26039 10.607 1.7574 10.6823H1.75891C3.15237 10.894 4.55516 10.9998 5.95846 10.9998C7.36201 10.9998 8.76581 10.894 10.1595 10.6823C10.6563 10.6068 11.1079 10.3421 11.4318 9.93657C11.7445 9.54504 11.9167 9.04628 11.9167 8.53228V4.1947C11.9167 3.68069 11.7445 3.18193 11.4318 2.7904ZM10.8581 8.53228C10.8581 9.10162 10.4879 9.5871 9.99696 9.66162C7.31765 10.0684 4.60078 10.0684 1.92172 9.66162H1.9197C1.42875 9.58685 1.05852 9.10113 1.05852 8.53179V4.19445C1.05852 3.62511 1.42875 3.13963 1.92172 3.06462C3.261 2.86123 4.6096 2.75966 5.95846 2.75966C7.30732 2.75966 8.65718 2.86147 9.99671 3.06486C10.4877 3.13938 10.8579 3.62486 10.8579 4.1942V8.53179L10.8581 8.53228Z" fill="#408CFB"/>
<path d="M3.78671 4.46558C3.49435 4.46558 3.25745 4.69676 3.25745 4.98204V5.62172C3.25745 5.90701 3.49435 6.13819 3.78671 6.13819C4.07906 6.13819 4.31597 5.90701 4.31597 5.62172V4.98204C4.31597 4.69676 4.07906 4.46558 3.78671 4.46558Z" fill="#408CFB"/>
<path d="M8.12997 4.46558C7.83761 4.46558 7.60071 4.69676 7.60071 4.98204V5.62172C7.60071 5.90701 7.83761 6.13819 8.12997 6.13819C8.42232 6.13819 8.65923 5.90701 8.65923 5.62172V4.98204C8.65923 4.69676 8.42232 4.46558 8.12997 4.46558Z" fill="#408CFB"/>
<path d="M6.15157 1.01949C6.43606 0.953965 6.61225 0.675802 6.5451 0.398193C6.47796 0.120584 6.1929 -0.0513467 5.90842 0.014175C5.62393 0.0796967 5.44774 0.357859 5.51489 0.635468C5.58203 0.913077 5.86708 1.08501 6.15157 1.01949Z" fill="#408CFB"/>
<path d="M6.7692 7.68749C6.00631 8.09329 5.36968 7.79546 5.23359 7.72168C5.01684 7.55075 4.69853 7.57288 4.50901 7.77677C4.31268 7.98802 4.32931 8.31487 4.5458 8.50621L4.56521 8.52343C4.58512 8.54114 4.60629 8.55712 4.62872 8.57163C4.66174 8.59303 5.19755 8.92996 5.97002 8.92996C6.35688 8.92996 6.80322 8.84536 7.27552 8.59426C7.53209 8.45776 7.62685 8.14395 7.48698 7.89359C7.3471 7.64322 7.02551 7.55075 6.76895 7.68724L6.7692 7.68749Z" fill="#408CFB"/>
</g>
<defs>
<clipPath id="clip0_84_655">
<rect width="11.9167" height="11" fill="white"/>
</clipPath>
</defs>
</svg>
