<?xml version="1.0" encoding="UTF-8"?>
<svg id="uuid-b4914a7b-1940-4ff0-bf1c-5a07e51220d0" data-name="Layer 1" xmlns="http://www.w3.org/2000/svg" viewBox="0 0 472.83 447.27">
  <path d="M453.59,113.46c-12.84-16.49-30.77-27.26-50.48-30.32-47.52-7.39-95.33-11.6-143.18-12.64-1.67-9.93-10.28-17.5-20.68-17.5s-18.96,7.52-20.67,17.39c-49.74.82-99.45,5.07-148.86,12.75-19.71,3.07-37.63,13.83-50.48,30.32C6.83,129.39,0,149.67,0,170.57v176.36c0,20.9,6.83,41.18,19.24,57.1,12.85,16.49,30.77,27.26,50.49,30.32h.06c55.29,8.61,110.95,12.91,166.63,12.91,55.69,0,111.39-4.3,166.69-12.91,19.71-3.07,37.63-13.83,50.48-30.32,12.41-15.92,19.24-36.2,19.24-57.1v-176.37c0-20.9-6.83-41.18-19.24-57.1ZM430.83,346.93c0,23.15-14.69,42.89-34.17,45.92-106.31,16.54-214.11,16.54-320.41,0h-.08c-19.48-3.04-34.17-22.79-34.17-45.94v-176.36c0-23.15,14.69-42.89,34.25-45.94,53.14-8.27,106.65-12.4,160.17-12.4s107.08,4.14,160.23,12.41c19.48,3.03,34.17,22.77,34.17,45.92v176.37Z"/>
  <path d="M150.25,181.57c-11.6,0-21,9.4-21,21v26.01c0,11.6,9.4,21,21,21s21-9.4,21-21v-26.01c0-11.6-9.4-21-21-21Z"/>
  <path d="M322.58,181.57c-11.6,0-21,9.4-21,21v26.01c0,11.6,9.4,21,21,21s21-9.4,21-21v-26.01c0-11.6-9.4-21-21-21Z"/>
  <circle cx="239.25" cy="21" r="21" transform="translate(1.58 55.53) rotate(-13.28)"/>
  <path d="M268.59,312.58c-30.27,16.5-55.53,4.39-60.93,1.39-8.6-6.95-21.23-6.05-28.75,2.24-7.79,8.59-7.13,21.88,1.46,29.66l.77.7c.79.72,1.63,1.37,2.52,1.96,1.31.87,22.57,14.57,53.22,14.57,15.35,0,33.06-3.44,51.8-13.65,10.18-5.55,13.94-18.31,8.39-28.49-5.55-10.18-18.31-13.94-28.49-8.39Z"/>
</svg>