<?xml version="1.0" encoding="UTF-8"?>
<svg id="uuid-b13bca43-8dff-44b6-8726-42ee4ef3d81e" data-name="Layer 1" xmlns="http://www.w3.org/2000/svg" viewBox="0 0 488.11 492">
  <path d="M381.01,57.25V21c0-11.6-9.4-21-21-21s-21,9.4-21,21v36.15h-189.92V21c0-11.6-9.4-21-21-21s-21,9.4-21,21v36.25C47.63,59.65,0,108.77,0,168.8v211.54c0,61.57,50.09,111.66,111.65,111.66h264.8c61.57,0,111.66-50.09,111.66-111.66v-211.54c0-60.04-47.63-109.15-107.09-111.55ZM446.11,380.34c0,38.41-31.25,69.66-69.66,69.66H111.65c-38.41,0-69.65-31.25-69.65-69.66v-211.54c0-38.41,31.25-69.65,69.65-69.65h264.8c38.41,0,69.66,31.25,69.66,69.65v211.54Z"/>
  <path d="M360.01,209.03h-27.26c-11.6,0-21,9.4-21,21s9.4,21,21,21h27.26c11.6,0,21-9.4,21-21s-9.4-21-21-21Z"/>
  <path d="M155.35,299.57h-27.26c-11.6,0-21,9.4-21,21s9.4,21,21,21h27.26c11.6,0,21-9.4,21-21s-9.4-21-21-21Z"/>
</svg>