<svg width="14" height="14" viewBox="0 0 14 14" fill="none" xmlns="http://www.w3.org/2000/svg">
<path d="M7.88903 6.99925L13.8159 1.07301C14.0614 0.827579 14.0614 0.429503 13.8159 0.184073C13.5705 -0.0613576 13.1723 -0.0613576 12.9269 0.184073L7 6.11032L1.07312 0.184073C0.827667 -0.0613576 0.429549 -0.0613576 0.184092 0.184073C-0.0613641 0.429503 -0.0613641 0.827579 0.184092 1.07301L6.11097 6.99925L0.184092 12.9255C-0.0613641 13.1709 -0.0613641 13.569 0.184092 13.8144C0.306821 13.9371 0.468463 14 0.627111 14C0.78576 14 0.947402 13.9401 1.07013 13.8144L6.99701 7.88819L12.9239 13.8144C13.0466 13.9371 13.2083 14 13.3669 14C13.5256 14 13.6872 13.9401 13.8099 13.8144C14.0554 13.569 14.0554 13.1709 13.8099 12.9255L7.88903 6.99925Z" fill="#FF5252"/>
</svg>
