<?xml version="1.0" encoding="UTF-8"?>
<svg id="uuid-5ae23edd-635d-4205-b519-83b3283fbe1e" data-name="Layer 1" xmlns="http://www.w3.org/2000/svg" viewBox="0 0 450 359.73">
  <path d="M344.1,6.59c-4.22,4.22-6.59,9.94-6.59,15.91s2.37,11.69,6.59,15.91l29.09,29.09h-125.69c-23.87,0-46.76,9.48-63.64,26.36-16.88,16.88-26.36,39.77-26.36,63.64v22.5c0,5.97,2.37,11.69,6.59,15.91,4.22,4.22,9.94,6.59,15.91,6.59s11.69-2.37,15.91-6.59c4.22-4.22,6.59-9.94,6.59-15.91v-22.5c0-11.93,4.74-23.38,13.18-31.82s19.89-13.18,31.82-13.18h125.69l-29.09,29.09c-4.1,4.24-6.37,9.93-6.32,15.83.05,5.9,2.42,11.54,6.59,15.71,4.17,4.17,9.82,6.54,15.71,6.59,5.9.05,11.58-2.22,15.83-6.32l67.5-67.5c4.22-4.22,6.59-9.94,6.59-15.91s-2.37-11.69-6.59-15.91L375.91,6.59c-4.22-4.22-9.94-6.59-15.91-6.59s-11.69,2.37-15.91,6.59ZM270,157.5c-5.97,0-11.69,2.37-15.91,6.59-4.22,4.22-6.59,9.94-6.59,15.91v22.5c0,11.93-4.74,23.38-13.18,31.82-8.44,8.44-19.89,13.18-31.82,13.18h-125.69l29.09-29.09c2.15-2.08,3.86-4.56,5.04-7.3,1.18-2.75,1.8-5.7,1.83-8.69s-.54-5.95-1.67-8.72c-1.13-2.77-2.8-5.28-4.91-7.39-2.11-2.11-4.62-3.78-7.39-4.91-2.77-1.13-5.73-1.7-8.72-1.67-2.99.03-5.94.65-8.69,1.83-2.74,1.18-5.23,2.89-7.3,5.04L6.59,254.09c-4.22,4.22-6.59,9.94-6.59,15.91s2.37,11.69,6.59,15.91l67.5,67.5c4.24,4.1,9.93,6.37,15.83,6.32,5.9-.05,11.54-2.42,15.71-6.59,4.17-4.17,6.54-9.82,6.59-15.71.05-5.9-2.22-11.58-6.32-15.83l-29.09-29.09h125.69c23.87,0,46.76-9.48,63.64-26.36,16.88-16.88,26.36-39.77,26.36-63.64v-22.5c0-5.97-2.37-11.69-6.59-15.91-4.22-4.22-9.94-6.59-15.91-6.59Z" fill-rule="evenodd"/>
</svg>