<?xml version="1.0" encoding="UTF-8"?>
<svg id="uuid-c648d2b8-12b8-4f81-bf66-f36042d085ac" data-name="Layer 1" xmlns="http://www.w3.org/2000/svg" viewBox="0 0 405.06 494.78">
  <path d="M405.06,180.43c0-1.9-.24-3.74-.68-5.51-1.34-18.95-9.34-36.58-22.91-50.14l-101.73-101.67C264.83,8.21,245.01,0,223.94,0H85.67C38.43,0,0,38.43,0,85.67v323.44c0,47.24,38.43,85.67,85.67,85.67h233.26c47.24,0,85.67-38.43,85.67-85.67v-224.15c.3-1.46.46-2.98.46-4.53ZM349.81,156.45c.51.51,1,1.05,1.48,1.59h-57.2c-22.55,0-40.89-18.34-40.89-40.89v-57.25l96.61,96.56ZM318.93,450H85.67c-22.55,0-40.89-18.34-40.89-40.89V85.67c0-22.55,18.34-40.89,40.89-40.89h122.75v72.37c0,47.24,38.43,85.67,85.67,85.67h65.73v206.29c0,22.55-18.34,40.89-40.89,40.89Z"/>
  <path d="M157.22,314.7h-44.88c-12.37,0-22.39,10.02-22.39,22.39s10.02,22.39,22.39,22.39h44.88c12.37,0,22.39-10.02,22.39-22.39s-10.02-22.39-22.39-22.39Z"/>
</svg>