<svg width="17" height="20" viewBox="0 0 17 20" fill="none" xmlns="http://www.w3.org/2000/svg">
<g clip-path="url(#clip0_84_441)">
<path d="M16.3733 7.29334C16.3733 7.21654 16.3636 7.14216 16.3458 7.07062C16.2917 6.30462 15.9683 5.59198 15.4198 5.04386L11.3077 0.934153C10.705 0.331865 9.9038 0 9.0521 0H3.46295C1.55342 0 0 1.55342 0 3.46295V16.537C0 18.4466 1.55342 20 3.46295 20H12.8918C14.8013 20 16.3547 18.4466 16.3547 16.537V7.47645C16.3669 7.41744 16.3733 7.356 16.3733 7.29334ZM14.14 6.32402C14.1606 6.34464 14.1804 6.36647 14.1998 6.38829H11.8877C10.9762 6.38829 10.2349 5.64695 10.2349 4.73544V2.42128L14.14 6.32443V6.32402ZM12.8918 18.1899H3.46295C2.55144 18.1899 1.8101 17.4486 1.8101 16.537V3.46295C1.8101 2.55144 2.55144 1.8101 3.46295 1.8101H8.42475V4.73544C8.42475 6.64497 9.97817 8.19839 11.8877 8.19839H14.5446V16.537C14.5446 17.4486 13.8033 18.1899 12.8918 18.1899Z" fill="#408CFB"/>
<path d="M6.35517 12.7207H4.54103C4.04101 12.7207 3.63599 13.1257 3.63599 13.6258C3.63599 14.1258 4.04101 14.5308 4.54103 14.5308H6.35517C6.85519 14.5308 7.26022 14.1258 7.26022 13.6258C7.26022 13.1257 6.85519 12.7207 6.35517 12.7207Z" fill="#408CFB"/>
</g>
<defs>
<clipPath id="clip0_84_441">
<rect width="16.3733" height="20" fill="white"/>
</clipPath>
</defs>
</svg>
