<svg width="14" height="14" viewBox="0 0 14 14" fill="none" xmlns="http://www.w3.org/2000/svg">
<g clip-path="url(#clip0_16_764)">
<path d="M11.1915 2.78181C10.9756 1.2126 9.62864 0 8.00393 0H3.21807C1.44373 0 0 1.44657 0 3.22441V8.01968C0 9.65862 1.22672 11.0159 2.80853 11.2182C3.02444 12.7874 4.37163 14 5.99607 14H10.7819C12.5563 14 14 12.5534 14 10.7756V5.98031C14 4.34138 12.7733 2.98409 11.1915 2.78181ZM1.15521 8.01968V3.22441C1.15521 2.08484 2.08075 1.15748 3.21807 1.15748H8.00393C9.14153 1.15748 10.0668 2.08484 10.0668 3.22441V8.01968C10.0668 9.15953 9.14153 10.0866 8.00393 10.0866H3.21807C2.08075 10.0866 1.15521 9.15953 1.15521 8.01968ZM12.8448 10.7756C12.8448 11.9154 11.9195 12.8425 10.7819 12.8425H5.99607C5.01937 12.8425 4.19973 12.1588 3.98739 11.2441H8.00393C9.77827 11.2441 11.222 9.79752 11.222 8.01968V3.96134C12.1486 4.1639 12.8448 4.99205 12.8448 5.98031V10.7756Z" fill="#B8B8B8"/>
</g>
<defs>
<clipPath id="clip0_16_764">
<rect width="14" height="14" fill="white"/>
</clipPath>
</defs>
</svg>
