<svg width="14" height="14" viewBox="0 0 14 14" fill="none" xmlns="http://www.w3.org/2000/svg">
<g clip-path="url(#clip0_84_2951)">
<path d="M10.8347 1.6304V0.583079C10.8347 0.260997 10.5737 0 10.2516 0C9.92955 0 9.66856 0.260997 9.66856 0.583079V1.62984H4.22038V0.583079C4.22038 0.260997 3.95938 0 3.6373 0C3.31522 0 3.05422 0.260997 3.05422 0.583079V1.6304C1.36579 1.65511 0 3.0359 0 4.73016V10.9C0 12.6095 1.39078 14 3.10004 14H10.7886C12.4982 14 13.8889 12.6092 13.8889 10.9V4.73016C13.8889 3.03617 12.5231 1.65539 10.8347 1.63068V1.6304ZM12.7228 10.8997C12.7228 11.9662 11.8551 12.8336 10.7886 12.8336H3.10004C2.03356 12.8336 1.16616 11.9659 1.16616 10.8997V4.72988C1.16616 3.6634 2.03383 2.79572 3.10004 2.79572H10.7886C11.8551 2.79572 12.7228 3.6634 12.7228 4.72988V10.8997Z" fill="#8F8FA7"/>
<path d="M10.2521 5.96118H9.47468C9.1526 5.96118 8.8916 6.22218 8.8916 6.54426C8.8916 6.86634 9.1526 7.12734 9.47468 7.12734H10.2521C10.5742 7.12734 10.8352 6.86634 10.8352 6.54426C10.8352 6.22218 10.5742 5.96118 10.2521 5.96118Z" fill="#8F8FA7"/>
<path d="M4.4152 8.54346H3.63777C3.31568 8.54346 3.05469 8.80445 3.05469 9.12654C3.05469 9.44862 3.31568 9.70961 3.63777 9.70961H4.4152C4.73729 9.70961 4.99828 9.44862 4.99828 9.12654C4.99828 8.80445 4.73729 8.54346 4.4152 8.54346Z" fill="#8F8FA7"/>
</g>
<defs>
<clipPath id="clip0_84_2951">
<rect width="13.8889" height="14" fill="white"/>
</clipPath>
</defs>
</svg>
