<svg width="11" height="14" viewBox="0 0 11 14" fill="none" xmlns="http://www.w3.org/2000/svg">
<path d="M10.4961 2.81073H8.59959V2.21057C8.59959 1.46925 7.99655 0.866211 7.25523 0.866211H3.74501C3.00369 0.866211 2.40065 1.46925 2.40065 2.21057V2.81073H0.504136C0.225661 2.81073 0 3.0364 0 3.31487C0 3.59334 0.225661 3.81901 0.504136 3.81901H0.745401L1.1187 11.0613C1.17848 12.2232 2.13681 13.1335 3.30041 13.1335H7.69959C8.86318 13.1335 9.82128 12.2234 9.8813 11.0613L10.2546 3.81901H10.4959C10.7743 3.81901 11 3.59334 11 3.31487C11 3.0364 10.7743 2.81073 10.4959 2.81073H10.4961ZM3.40892 2.21057C3.40892 2.02524 3.55968 1.87448 3.74501 1.87448H7.25523C7.44056 1.87448 7.59132 2.02524 7.59132 2.21057V2.81073H3.40892V2.21057ZM8.87447 11.0094C8.8423 11.635 8.32616 12.1252 7.69959 12.1252H3.30041C2.67384 12.1252 2.15794 11.635 2.12553 11.0094L1.75487 3.81901H9.24489L8.87423 11.0094H8.87447Z" fill="#FF3D3D"/>
</svg>
