<?xml version="1.0" encoding="UTF-8"?>
<svg id="uuid-3fc54a60-cef9-44ce-ab7d-12ab4ca75795" data-name="Layer 1" xmlns="http://www.w3.org/2000/svg" viewBox="0 0 260.94 223.37">
  <path d="M50.7,111.69L126.54,35.85c8.2-8.2,8.2-21.5,0-29.7s-21.5-8.2-29.7,0L6.15,96.84c-8.2,8.2-8.2,21.5,0,29.7l90.69,90.69c4.1,4.1,9.47,6.15,14.85,6.15s10.75-2.05,14.85-6.15c8.2-8.2,8.2-21.5,0-29.7L50.7,111.69Z"/>
  <path d="M178.95,111.69l75.84-75.84c8.2-8.2,8.2-21.5,0-29.7-8.2-8.2-21.5-8.2-29.7,0l-90.69,90.69c-8.2,8.2-8.2,21.5,0,29.7l90.69,90.69c4.1,4.1,9.47,6.15,14.85,6.15s10.75-2.05,14.85-6.15c8.2-8.2,8.2-21.5,0-29.7l-75.84-75.84Z"/>
</svg>