<?xml version="1.0" encoding="UTF-8"?>
<svg id="uuid-55641b5c-4a25-43a0-8328-76b47d3b874a" data-name="Layer 1" xmlns="http://www.w3.org/2000/svg" viewBox="0 0 260.94 223.37">
  <path d="M149.25,223.37c-5.37,0-10.75-2.05-14.85-6.15-8.2-8.2-8.2-21.5,0-29.7l75.84-75.84-75.84-75.84c-8.2-8.2-8.2-21.5,0-29.7s21.5-8.2,29.7,0l90.69,90.69c8.2,8.2,8.2,21.5,0,29.7l-90.69,90.69c-4.1,4.1-9.48,6.15-14.85,6.15Z"/>
  <path d="M21,223.37c-5.37,0-10.75-2.05-14.85-6.15-8.2-8.2-8.2-21.5,0-29.7l75.84-75.84L6.15,35.85C-2.05,27.65-2.05,14.35,6.15,6.15c8.2-8.2,21.5-8.2,29.7,0l90.69,90.69c8.2,8.2,8.2,21.5,0,29.7l-90.69,90.69c-4.1,4.1-9.47,6.15-14.85,6.15Z"/>
</svg>