<svg width="12" height="15" viewBox="0 0 12 15" fill="none" xmlns="http://www.w3.org/2000/svg">
<path d="M1.44391 12.2886C1.58651 12.2886 1.61503 12.2746 1.74337 12.2466L4.3102 11.7427C4.58115 11.6727 4.85209 11.5467 5.06599 11.3368L11.2834 5.23432C12.2389 4.29655 12.2389 2.68695 11.2834 1.74919L10.7558 1.20332C9.80037 0.265559 8.14619 0.265559 7.19076 1.20332L0.973323 7.3198C0.773681 7.51575 0.631079 7.79568 0.559778 8.06161L0.0178918 10.609C-0.0534091 11.0849 0.0891926 11.5467 0.431437 11.8827C0.70238 12.1486 1.10166 12.2886 1.44391 12.2886ZM1.92875 8.32754L8.14619 2.21107C8.55973 1.80517 9.31552 1.80517 9.71481 2.21107L10.2567 2.74294C10.7415 3.21882 10.7415 3.89065 10.2567 4.35254L4.05352 10.469L1.41539 10.9029L1.92875 8.32754ZM11.2264 13.1563H0.70238C0.288835 13.1563 0.0178918 13.4223 0.0178918 13.8282C0.0178918 14.2341 0.360136 14.5 0.70238 14.5H11.1693C11.5829 14.5 11.9251 14.2341 11.9251 13.8282C11.9109 13.4223 11.5686 13.1563 11.2264 13.1563Z" fill="#2268E9"/>
</svg>
