<svg width="13" height="14" viewBox="0 0 13 14" fill="none" xmlns="http://www.w3.org/2000/svg">
<path d="M7.10568 14C6.76455 14 6.42449 13.9069 6.12723 13.7228L5.21266 13.1559C4.5234 12.7288 4.11244 12.0021 4.11244 11.2118L4.11349 8.71984C4.11349 8.02838 3.86783 7.34945 3.42107 6.80861L0.449245 3.20952C-0.0459431 2.61047 -0.138944 1.80936 0.206038 1.11892C0.551019 0.428817 1.25888 0 2.05343 0H10.9468C11.7396 0 12.4471 0.427463 12.7924 1.11587C13.1381 1.80394 13.0472 2.60438 12.5555 3.20411L9.60021 6.80996C9.15837 7.34911 8.91516 8.02432 8.91516 8.71137V12.2543C8.91516 12.8929 8.55404 13.4798 7.97287 13.7861C7.70696 13.9263 7.40874 13.9998 7.10568 13.9997V14ZM5.58642 11.2122C5.58642 11.5161 5.7447 11.7957 6.00967 11.9598L6.92424 12.5267C7.06988 12.6171 7.20113 12.5728 7.26641 12.5386C7.33169 12.5044 7.44118 12.4215 7.44118 12.2546V8.71171C7.44118 7.70618 7.7974 6.71756 8.44384 5.92864L11.3992 2.32278C11.6017 2.07605 11.5132 1.83 11.4659 1.73557C11.4185 1.64115 11.2732 1.42183 10.9468 1.42183H2.05343C1.72634 1.42183 1.58105 1.64182 1.53402 1.73659C1.48665 1.83135 1.39891 2.07775 1.60246 2.32448L4.57429 5.92322C5.2281 6.71486 5.58783 7.70821 5.58748 8.72051L5.58642 11.2125V11.2122Z" fill="#8F8FA7"/>
</svg>
