<?xml version="1.0" encoding="UTF-8"?>
<svg id="uuid-c6309eea-20e3-4618-bb50-7686f8d66746" data-name="Layer 1" xmlns="http://www.w3.org/2000/svg" viewBox="0 0 401.82 492">
  <path d="M155.83,314.7h-44.88c-11.6,0-21,9.4-21,21s9.4,21,21,21h44.88c11.6,0,21-9.4,21-21s-9.4-21-21-21Z"/>
  <path d="M105.02,274.24h44.88c11.6,0,21-9.4,21-21s-9.4-21-21-21h-44.88c-11.6,0-21,9.4-21,21s9.4,21,21,21Z"/>
  <path d="M379.09,124.37l-101.72-101.67C262.72,8.06,243.25,0,222.55,0H84.28C37.81,0,0,37.81,0,84.28v323.44c0,46.47,37.81,84.28,84.28,84.28h233.26c46.47,0,84.28-37.81,84.28-84.28v-228.5c0-20.72-8.07-40.2-22.73-54.85ZM349.4,154.08c1.25,1.25,2.39,2.57,3.43,3.96h-60.13c-23.31,0-42.28-18.97-42.28-42.28v-60.61l98.98,98.93ZM317.54,450H84.28c-23.31,0-42.28-18.97-42.28-42.28V84.28c0-23.31,18.97-42.28,42.28-42.28h124.14v73.76c0,46.47,37.81,84.28,84.28,84.28h67.12v207.68c0,23.31-18.97,42.28-42.28,42.28Z"/>
</svg>