<svg width="17" height="20" viewBox="0 0 17 20" fill="none" xmlns="http://www.w3.org/2000/svg">
<g clip-path="url(#clip0_84_450)">
<path d="M6.33454 12.7927H4.51015C4.03861 12.7927 3.65649 13.1748 3.65649 13.6464C3.65649 14.1179 4.03861 14.5 4.51015 14.5H6.33454C6.80609 14.5 7.1882 14.1179 7.1882 13.6464C7.1882 13.1748 6.80609 12.7927 6.33454 12.7927Z" fill="#408CFB"/>
<path d="M4.26919 11.148H6.09358C6.56512 11.148 6.94723 10.7659 6.94723 10.2943C6.94723 9.82279 6.56512 9.44067 6.09358 9.44067H4.26919C3.79764 9.44067 3.41553 9.82279 3.41553 10.2943C3.41553 10.7659 3.79764 11.148 4.26919 11.148Z" fill="#408CFB"/>
<path d="M15.4102 5.05569L11.2752 0.922764C10.6797 0.327642 9.88821 0 9.04675 0H3.42602C1.53699 0 0 1.53699 0 3.42602V16.574C0 18.463 1.53699 20 3.42602 20H12.9081C14.7972 20 16.3341 18.463 16.3341 16.574V7.28537C16.3341 6.44309 16.0061 5.65122 15.4102 5.05569ZM14.2033 6.26341C14.2541 6.31423 14.3004 6.36789 14.3427 6.42439H11.8984C10.9508 6.42439 10.1797 5.65325 10.1797 4.70569V2.24187L14.2033 6.26341ZM12.9081 18.2927H3.42602C2.47846 18.2927 1.70732 17.5215 1.70732 16.574V3.42602C1.70732 2.47846 2.47846 1.70732 3.42602 1.70732H8.47236V4.70569C8.47236 6.59472 10.0094 8.13171 11.8984 8.13171H14.6268V16.574C14.6268 17.5215 13.8557 18.2927 12.9081 18.2927Z" fill="#408CFB"/>
</g>
<defs>
<clipPath id="clip0_84_450">
<rect width="16.3341" height="20" fill="white"/>
</clipPath>
</defs>
</svg>
