<svg width="200" height="29" viewBox="0 0 200 29" fill="none" xmlns="http://www.w3.org/2000/svg">
<path d="M13.5791 12.5742L20.6475 0.166992L28.0879 12.5742L34.7842 0.166992H41.667L28.0879 24.7959L32.9238 21.4629L37.0166 28.5H30.3203L28.0879 24.7959L20.6475 12.0186L13.207 24.7959L11.1611 28.5H4.27832L8.55664 21.4629L13.207 24.7959L0 0.166992H6.88281L13.5791 12.5742ZM157.232 7.08105C158.108 7.08109 158.98 7.18454 159.848 7.38965C160.716 7.59482 161.509 7.93374 162.228 8.40723C162.945 8.87271 163.521 9.50791 163.955 10.3125C164.397 11.1173 164.618 12.1238 164.618 13.3311V25.5H160.499V23.002H160.357C160.097 23.507 159.729 23.9809 159.256 24.4229C158.79 24.8568 158.202 25.2083 157.492 25.4766C156.79 25.7369 155.965 25.8672 155.019 25.8672C153.866 25.8672 152.829 25.6613 151.905 25.251C150.99 24.8328 150.264 24.2178 149.728 23.4053C149.199 22.5925 148.935 21.5899 148.935 20.3984C148.935 19.3728 149.123 18.5242 149.502 17.8535C149.881 17.1828 150.398 16.6456 151.053 16.2432C151.708 15.8407 152.446 15.5372 153.267 15.332C154.095 15.119 154.951 14.9648 155.835 14.8701C156.9 14.7596 157.765 14.661 158.428 14.5742C159.09 14.4795 159.572 14.3378 159.872 14.1484C160.18 13.9511 160.333 13.6466 160.333 13.2363V13.166C160.333 12.2743 160.069 11.583 159.54 11.0938C159.011 10.6047 158.25 10.3604 157.256 10.3604C156.206 10.3604 155.373 10.5892 154.758 11.0469C154.15 11.5046 153.74 12.0456 153.527 12.6689L149.526 12.1006C149.842 10.9958 150.363 10.0719 151.089 9.33008C151.815 8.58059 152.703 8.02025 153.752 7.64941C154.801 7.27066 155.962 7.08105 157.232 7.08105ZM87.5713 7.08105C89.3466 7.08105 90.8855 7.47188 92.1875 8.25293C93.4895 9.03414 94.4958 10.1315 95.2061 11.5439C95.9242 12.9565 96.2832 14.6023 96.2832 16.4805C96.2832 18.3585 95.9241 19.9997 95.2061 21.4043C94.4958 22.8089 93.4896 23.9024 92.1875 24.6836C90.8855 25.4647 89.3466 25.8555 87.5713 25.8555C85.7959 25.8554 84.2571 25.4647 82.9551 24.6836C81.653 23.9023 80.6429 22.809 79.9248 21.4043C79.2146 19.9997 78.8594 18.3585 78.8594 16.4805C78.8594 14.6023 79.2146 12.9565 79.9248 11.5439C80.6429 10.1314 81.653 9.03416 82.9551 8.25293C84.2571 7.4718 85.7959 7.08108 87.5713 7.08105ZM177.834 7.08105C179.31 7.08105 180.616 7.354 181.752 7.89844C182.896 8.435 183.808 9.19633 184.486 10.1826C185.165 11.1611 185.552 12.3054 185.646 13.6152H181.551C181.385 12.7394 180.991 12.0097 180.367 11.4258C179.752 10.834 178.927 10.5381 177.894 10.5381C177.018 10.5381 176.248 10.7746 175.585 11.248C174.922 11.7136 174.405 12.3849 174.034 13.2607C173.671 14.1366 173.49 15.1862 173.49 16.4092C173.49 17.6481 173.671 18.7138 174.034 19.6055C174.397 20.4892 174.907 21.172 175.562 21.6533C176.224 22.1267 177.002 22.3633 177.894 22.3633C178.525 22.3633 179.089 22.2445 179.586 22.0078C180.091 21.7632 180.513 21.4118 180.853 20.9541C181.192 20.4964 181.425 19.94 181.551 19.2852H185.646C185.544 20.5713 185.166 21.7118 184.511 22.7061C183.856 23.6925 182.963 24.4661 181.835 25.0264C180.707 25.5787 179.381 25.8554 177.858 25.8555C176.043 25.8555 174.485 25.4562 173.183 24.6592C171.889 23.8622 170.89 22.7619 170.188 21.3574C169.493 19.9449 169.146 18.319 169.146 16.4805C169.146 14.6341 169.501 13.0043 170.211 11.5918C170.921 10.1714 171.924 9.06648 173.218 8.27734C174.52 7.48035 176.059 7.0811 177.834 7.08105ZM64.5459 0.925781C65.8951 0.925815 67.1497 1.11543 68.3096 1.49414C69.4696 1.87292 70.5036 2.42922 71.4111 3.16309C72.3186 3.8891 73.0645 4.78142 73.6484 5.83887C74.2402 6.88835 74.6271 8.0882 74.8086 9.4375H70.3809C70.2546 8.71152 70.0219 8.06809 69.6826 7.50781C69.3433 6.93963 68.9211 6.45805 68.416 6.06348C67.9111 5.66905 67.3353 5.37305 66.6885 5.17578C66.0493 4.9706 65.358 4.86816 64.6162 4.86816C63.2985 4.86822 62.1302 5.19949 61.1123 5.8623C60.0946 6.51722 59.2977 7.47983 58.7217 8.75C58.1456 10.0126 57.8574 11.556 57.8574 13.3789C57.8574 15.2333 58.1456 16.7959 58.7217 18.0664C59.3056 19.3288 60.1024 20.2836 61.1123 20.9307C62.1302 21.5698 63.2946 21.8896 64.6045 21.8896C65.3305 21.8896 66.0093 21.7949 66.6406 21.6055C67.2798 21.4082 67.8524 21.12 68.3574 20.7412C68.8702 20.3625 69.3003 19.897 69.6475 19.3447C70.0025 18.7925 70.2467 18.1612 70.3809 17.4512L74.8086 17.4746C74.6429 18.6266 74.2838 19.7078 73.7314 20.7178C73.187 21.7277 72.4725 22.6193 71.5889 23.3926C70.705 24.158 69.671 24.7584 68.4873 25.1924C67.3037 25.6185 65.9899 25.831 64.5459 25.8311C62.4152 25.8311 60.5128 25.338 58.8398 24.3516C57.167 23.3651 55.8494 21.9404 54.8867 20.0781C53.9241 18.2158 53.4424 15.9829 53.4424 13.3789C53.4424 10.7668 53.9278 8.53319 54.8984 6.67871C55.869 4.81667 57.1906 3.39262 58.8633 2.40625C60.5363 1.41982 62.431 0.925781 64.5459 0.925781ZM127.726 7.31836H131.312V10.6328H127.726V20.0312C127.726 20.6073 127.813 21.0497 127.986 21.3574C128.168 21.657 128.404 21.8622 128.696 21.9727C128.988 22.0831 129.312 22.1387 129.667 22.1387C129.935 22.1387 130.18 22.1185 130.4 22.0791C130.629 22.0396 130.804 22.0042 130.922 21.9727L131.644 25.3223C131.415 25.4012 131.087 25.4883 130.661 25.583C130.243 25.6777 129.73 25.7332 129.122 25.749C128.049 25.7806 127.082 25.6188 126.222 25.2637C125.362 24.9007 124.68 24.3395 124.175 23.582C123.678 22.8245 123.433 21.8776 123.44 20.7412V10.6328H120.86V7.31836H123.44V2.96191H127.726V7.31836ZM195.658 7.31836H199.244V10.6328H195.658V20.0312C195.658 20.6073 195.744 21.0497 195.918 21.3574C196.099 21.6572 196.337 21.8622 196.629 21.9727C196.921 22.083 197.244 22.1386 197.599 22.1387C197.867 22.1387 198.112 22.1186 198.333 22.0791C198.562 22.0397 198.735 22.0042 198.854 21.9727L199.576 25.3223C199.347 25.4012 199.02 25.4883 198.594 25.583C198.176 25.6777 197.662 25.7332 197.055 25.749C195.981 25.7806 195.014 25.6188 194.154 25.2637C193.294 24.9007 192.611 24.3396 192.106 23.582C191.609 22.8245 191.365 21.8774 191.373 20.7412V10.6328H188.792V7.31836H191.373V2.96191H195.658V7.31836ZM110.65 7.08105C111.905 7.08105 112.999 7.3501 113.93 7.88672C114.869 8.42333 115.595 9.20085 116.107 10.2188C116.628 11.2366 116.885 12.4712 116.877 13.9229V25.5H112.592V14.5859C112.592 13.3708 112.276 12.4199 111.645 11.7334C111.021 11.047 110.157 10.7031 109.053 10.7031C108.303 10.7031 107.636 10.8697 107.052 11.2012C106.476 11.5247 106.022 11.994 105.69 12.6094C105.367 13.2249 105.206 13.9708 105.206 14.8467V25.5H100.921V7.31836H105.017V10.4072H105.229C105.648 9.38958 106.314 8.58108 107.229 7.98145C108.153 7.38174 109.293 7.08109 110.65 7.08105ZM144.727 7.05762C144.963 7.05763 145.228 7.07009 145.52 7.09375C145.819 7.10952 146.067 7.13639 146.265 7.17578V11.1182C146.083 11.0551 145.796 10.9995 145.401 10.9521C145.015 10.8969 144.639 10.8691 144.276 10.8691C143.495 10.8692 142.793 11.0388 142.17 11.3779C141.554 11.7094 141.069 12.1718 140.714 12.7637C140.359 13.3555 140.181 14.0382 140.181 14.8115V25.5H135.896V7.31836H140.051V10.3486H140.24C140.572 9.29915 141.139 8.49005 141.944 7.92188C142.757 7.3458 143.685 7.05762 144.727 7.05762ZM160.345 16.835C160.211 16.9454 159.982 17.0479 159.658 17.1426C159.343 17.2372 158.987 17.3206 158.593 17.3916C158.198 17.4626 157.807 17.5258 157.421 17.5811C157.034 17.6363 156.699 17.6832 156.415 17.7227C155.776 17.8094 155.204 17.9522 154.699 18.1494C154.194 18.3467 153.795 18.6224 153.503 18.9775C153.211 19.3247 153.065 19.7748 153.065 20.3271C153.065 21.1163 153.354 21.7118 153.93 22.1143C154.506 22.5167 155.239 22.7187 156.131 22.7188C156.991 22.7188 157.737 22.5483 158.368 22.209C158.999 21.8618 159.485 21.4041 159.824 20.8359C160.171 20.2678 160.345 19.6483 160.345 18.9775V16.835ZM87.5947 10.4785C86.6085 10.4786 85.7877 10.7467 85.1328 11.2832C84.4857 11.8198 84.0003 12.5427 83.6768 13.4502C83.3612 14.3497 83.2031 15.3562 83.2031 16.4688C83.2032 17.5732 83.3612 18.5752 83.6768 19.4746C84.0003 20.3741 84.4859 21.0923 85.1328 21.6289C85.7877 22.1576 86.6085 22.4218 87.5947 22.4219C88.5575 22.4219 89.3627 22.1576 90.0098 21.6289C90.6568 21.0923 91.1385 20.3742 91.4541 19.4746C91.7775 18.5752 91.9394 17.5732 91.9395 16.4688C91.9395 15.3562 91.7776 14.3497 91.4541 13.4502C91.1384 12.5427 90.6569 11.8198 90.0098 11.2832C89.3627 10.7467 88.5573 10.4785 87.5947 10.4785Z" fill="white"/>
</svg>
