<?xml version="1.0" encoding="UTF-8"?>
<svg id="uuid-2e21a36e-73ad-447b-9bd5-2eea6eee4de9" data-name="Layer 1" xmlns="http://www.w3.org/2000/svg" viewBox="0 0 492.07 492">
  <path d="M471,295.91c-11.6,0-21,9.4-21,21v72.54c0,33.39-27.16,60.55-60.55,60.55H102.55c-33.39,0-60.55-27.16-60.55-60.55V102.55c0-33.39,27.16-60.55,60.55-60.55h72.54c11.6,0,21-9.4,21-21S186.68,0,175.09,0h-72.54C46,0,0,46,0,102.55v286.9c0,56.54,46,102.55,102.55,102.55h286.9c56.54,0,102.55-46,102.55-102.55v-72.54c0-11.6-9.4-21-21-21Z"/>
  <path d="M491.97,18.93c-.03-.31-.09-.6-.13-.91-.05-.38-.1-.75-.17-1.12-.07-.35-.16-.68-.25-1.03-.08-.32-.15-.65-.25-.97-.1-.33-.23-.66-.34-.98-.11-.32-.22-.64-.35-.96-.13-.3-.27-.59-.41-.89-.15-.33-.3-.65-.47-.97-.15-.28-.32-.55-.49-.83-.19-.31-.36-.63-.57-.94-.2-.3-.43-.59-.65-.88-.19-.26-.37-.52-.58-.77-.42-.51-.87-1-1.33-1.47-.02-.02-.04-.04-.06-.06-.02-.02-.04-.03-.05-.05-.47-.47-.97-.92-1.48-1.34-.25-.2-.51-.38-.77-.58-.29-.22-.58-.44-.88-.65-.3-.2-.62-.38-.93-.56-.28-.17-.55-.34-.83-.49-.32-.17-.64-.31-.96-.46-.3-.14-.59-.29-.9-.42-.31-.13-.63-.23-.94-.35-.33-.12-.66-.25-1-.35-.31-.09-.63-.16-.94-.24-.35-.09-.69-.19-1.05-.26-.36-.07-.72-.11-1.08-.16-.32-.05-.63-.11-.95-.14-.65-.06-1.3-.09-1.95-.1-.04,0-.08,0-.12,0h-161.42c-11.6,0-21,9.4-21,21s9.4,21,21,21h110.72l-23.87,23.87-161.55,161.55c-8.2,8.2-8.2,21.5,0,29.7,4.1,4.1,9.47,6.15,14.85,6.15s10.75-2.05,14.85-6.15l161.55-161.55,23.87-23.87v110.72c0,11.6,9.4,21,21,21s21-9.4,21-21V21c0-.69-.04-1.39-.1-2.08Z"/>
</svg>