<svg width="12" height="8" viewBox="0 0 12 8" fill="none" xmlns="http://www.w3.org/2000/svg">
<g clip-path="url(#clip0_84_371)">
<path d="M4.51883 2.19317H11.1157C11.6042 2.19317 12 1.79735 12 1.30886C12 0.820375 11.6042 0.424561 11.1157 0.424561H4.51883C4.03034 0.424561 3.63452 0.820375 3.63452 1.30886C3.63452 1.79735 4.03034 2.19317 4.51883 2.19317Z" fill="#21263C"/>
<path d="M1.30877 2.61754C2.03158 2.61754 2.61754 2.03158 2.61754 1.30877C2.61754 0.585956 2.03158 0 1.30877 0C0.585956 0 0 0.585956 0 1.30877C0 2.03158 0.585956 2.61754 1.30877 2.61754Z" fill="#21263C"/>
<path d="M11.1157 5.37646H4.51883C4.03034 5.37646 3.63452 5.77228 3.63452 6.26077C3.63452 6.74926 4.03034 7.14507 4.51883 7.14507H11.1157C11.6042 7.14507 12 6.74926 12 6.26077C12 5.77228 11.6042 5.37646 11.1157 5.37646Z" fill="#21263C"/>
<path d="M1.30877 7.56969C2.03158 7.56969 2.61754 6.98373 2.61754 6.26092C2.61754 5.5381 2.03158 4.95215 1.30877 4.95215C0.585956 4.95215 0 5.5381 0 6.26092C0 6.98373 0.585956 7.56969 1.30877 7.56969Z" fill="#21263C"/>
</g>
<defs>
<clipPath id="clip0_84_371">
<rect width="12" height="7.56964" fill="white"/>
</clipPath>
</defs>
</svg>
