<?xml version="1.0" encoding="UTF-8"?>
<svg id="uuid-339bf40b-9ec6-4305-b01b-f1d533b299d0" data-name="Layer 1" xmlns="http://www.w3.org/2000/svg" viewBox="0 0 441.17 492">
  <path d="M384.96,40.02l-89.62-30.07C275.65,3.35,255.14,0,234.38,0h-14.69c-19.02,0-37.89,2.82-56.07,8.39L58.31,40.61c-17,5.2-31.58,15.51-42.15,29.8C5.59,84.7,0,101.65,0,119.43v107.46c0,56.36,17,110.61,49.18,156.89,32.17,46.28,77.1,81.12,129.93,100.75,13.37,4.97,27.42,7.46,41.48,7.46s28.1-2.48,41.48-7.46c52.83-19.64,97.76-54.48,129.93-100.75,32.17-46.28,49.18-100.53,49.18-156.89v-108.72c0-35.46-22.59-66.87-56.21-78.15ZM399.17,226.89c0,47.75-14.41,93.71-41.66,132.92-27.25,39.21-65.32,68.72-110.08,85.36-17.31,6.43-36.38,6.43-53.69,0-44.76-16.64-82.82-46.15-110.08-85.36s-41.66-85.17-41.66-132.92v-107.46c0-17.89,11.49-33.43,28.6-38.66l105.3-32.22c14.2-4.35,28.93-6.55,43.78-6.55h14.69c16.21,0,32.23,2.61,47.6,7.77l89.62,30.07c16.49,5.53,27.57,20.94,27.57,38.33v108.72Z"/>
  <path d="M242.89,319.88h-44.6c-11.6,0-21,9.4-21,21s9.4,21,21,21h44.6c11.6,0,21-9.4,21-21s-9.4-21-21-21Z"/>
</svg>