<svg width="18" height="20" viewBox="0 0 18 20" fill="none" xmlns="http://www.w3.org/2000/svg">
<g clip-path="url(#clip0_84_432)">
<path d="M15.6488 1.62683L12.0057 0.404472C11.2053 0.136179 10.3715 0 9.52764 0H8.93049C8.15732 0 7.39024 0.114634 6.65122 0.341057L2.37032 1.65081C1.67927 1.8622 1.08659 2.2813 0.65691 2.8622C0.227236 3.44309 0 4.13211 0 4.85488V9.22317C0 11.5142 0.691057 13.7195 1.99919 15.6008C3.30691 17.4821 5.13333 18.8984 7.28089 19.6963C7.82439 19.8984 8.39553 19.9996 8.96707 19.9996C9.53862 19.9996 10.1093 19.8988 10.6533 19.6963C12.8008 18.898 14.6272 17.4817 15.935 15.6008C17.2427 13.7195 17.9341 11.5142 17.9341 9.22317V4.80366C17.9341 3.3622 17.0159 2.08537 15.6492 1.62683H15.6488ZM16.2264 9.22317C16.2264 11.1642 15.6406 13.0325 14.5329 14.6264C13.4252 16.2203 11.8776 17.4199 10.0581 18.0963C9.35447 18.3577 8.57927 18.3577 7.87561 18.0963C6.0561 17.4199 4.50894 16.2203 3.40081 14.6264C2.29268 13.0325 1.70732 11.1642 1.70732 9.22317V4.85488C1.70732 4.12764 2.17439 3.49593 2.86992 3.28333L7.15041 1.97358C7.72764 1.79675 8.32642 1.70732 8.93008 1.70732H9.52723C10.1862 1.70732 10.8374 1.81341 11.4622 2.02317L15.1053 3.24553C15.7756 3.47033 16.226 4.09675 16.226 4.80366V9.22317H16.2264Z" fill="#408CFB"/>
<path d="M9.87358 13.0032H8.06057C7.58902 13.0032 7.20691 13.3853 7.20691 13.8568C7.20691 14.3284 7.58902 14.7105 8.06057 14.7105H9.87358C10.3451 14.7105 10.7272 14.3284 10.7272 13.8568C10.7272 13.3853 10.3451 13.0032 9.87358 13.0032Z" fill="#408CFB"/>
</g>
<defs>
<clipPath id="clip0_84_432">
<rect width="17.9337" height="20" fill="white"/>
</clipPath>
</defs>
</svg>
