<svg width="14" height="14" viewBox="0 0 14 14" fill="none" xmlns="http://www.w3.org/2000/svg">
<path fill-rule="evenodd" clip-rule="evenodd" d="M11.5129 1.4L6.3987 6.5142C6.25436 6.65865 6.17328 6.85451 6.17328 7.05871C6.17328 7.26292 6.25436 7.45877 6.3987 7.60323C6.54317 7.74752 6.73902 7.82858 6.94321 7.82858C7.14741 7.82858 7.34325 7.74752 7.48773 7.60323L12.6 2.49078V4.20053C12.6002 4.38607 12.674 4.56396 12.8053 4.69511C12.9365 4.82626 13.1145 4.89995 13.3 4.9C13.6859 4.9 14 4.58675 14 4.20053V0.699476C14 0.506801 13.9218 0.331976 13.7953 0.205276C13.7304 0.140106 13.6532 0.0884176 13.5683 0.0531871C13.4834 0.0179565 13.3923 -0.000119424 13.3003 5.93747e-07H9.79947C9.61393 0.000186088 9.43604 0.0740121 9.30489 0.205262C9.17374 0.336513 9.10005 0.514454 9.1 0.700001C9.1 1.08588 9.41325 1.4 9.79947 1.4H11.5129ZM14 8.4V5.07238V12.2552C14 13.2188 13.3058 14 12.4483 14H1.55173C0.69475 14 0 13.2172 0 12.2552V1.74475C0 0.781201 0.694225 5.93747e-07 1.55173 5.93747e-07H9.02423H5.6C5.78565 5.93747e-07 5.9637 0.0737503 6.09497 0.205026C6.22625 0.336301 6.3 0.514349 6.3 0.700001C6.3 0.885652 6.22625 1.0637 6.09497 1.19498C5.9637 1.32625 5.78565 1.4 5.6 1.4H1.79865C1.57587 1.4 1.4 1.60913 1.4 1.86708V12.1328C1.4 12.3865 1.5785 12.6 1.79865 12.6H12.2014C12.4241 12.6 12.6 12.3909 12.6 12.1329V8.4C12.6 8.21435 12.6737 8.0363 12.805 7.90503C12.9363 7.77375 13.1143 7.7 13.3 7.7C13.4857 7.7 13.6637 7.77375 13.795 7.90503C13.9263 8.0363 14 8.21435 14 8.4Z" fill="#B8B8B8"/>
</svg>
