<svg width="12" height="15" viewBox="0 0 12 15" fill="none" xmlns="http://www.w3.org/2000/svg">
<path d="M11.2955 3.70666L8.91448 1.23197C8.46068 0.759829 7.8571 0.5 7.21521 0.5H2.40375C1.07825 0.5 0 1.62116 0 2.99941V12.0006C0 13.3788 1.07825 14.5 2.40375 14.5H9.59625C10.9217 14.5 12 13.3788 12 12.0006V5.4741C12 4.8064 11.7499 4.1788 11.2955 3.70666ZM10.8906 12.0006C10.8906 12.7427 10.31 13.3464 9.59625 13.3464H2.40375C1.69002 13.3464 1.10942 12.7427 1.10942 12.0006V2.99941C1.10942 2.25728 1.69002 1.65357 2.40375 1.65357H7.21521C7.56072 1.65357 7.88589 1.79338 8.13023 2.04771L10.5113 4.5224C10.7559 4.77647 10.8906 5.11457 10.8906 5.4741V12.0006Z" fill="#2268E9"/>
<path d="M2.84699 5.44059H6.60741C6.91382 5.44059 7.16212 5.18241 7.16212 4.86381C7.16212 4.5452 6.91382 4.28702 6.60741 4.28702H2.84699C2.54058 4.28702 2.29228 4.5452 2.29228 4.86381C2.29228 5.18241 2.54058 5.44059 2.84699 5.44059Z" fill="#2268E9"/>
<path d="M8.82626 7.64337H2.84699C2.54058 7.64337 2.29228 7.90155 2.29228 8.22016C2.29228 8.53877 2.54058 8.79695 2.84699 8.79695H8.82626C9.13267 8.79695 9.38097 8.53877 9.38097 8.22016C9.38097 7.90155 9.13267 7.64337 8.82626 7.64337Z" fill="#2268E9"/>
</svg>
