<svg width="52" height="52" viewBox="0 0 52 52" fill="none" xmlns="http://www.w3.org/2000/svg">
<rect x="0.5" y="0.5" width="51" height="51" rx="7.5" fill="#FFF6E3" stroke="#FFE5D1"/>
<g clip-path="url(#clip0_289_254)">
<path d="M35.2826 21.0734C34.7085 20.336 33.9067 19.8544 33.0254 19.7176C30.9005 19.3872 28.7626 19.1989 26.623 19.1524C26.5483 18.7084 26.1633 18.3699 25.6982 18.3699C25.2332 18.3699 24.8504 18.7061 24.774 19.1475C22.5498 19.1841 20.327 19.3742 18.1176 19.7176C17.2362 19.8549 16.4349 20.336 15.8603 21.0734C15.3054 21.7857 15 22.6925 15 23.6271V31.5132C15 32.4477 15.3054 33.3546 15.8603 34.0664C16.4349 34.8038 17.2362 35.2854 18.118 35.4222H18.1207C20.593 35.8072 23.0819 35.9995 25.5717 35.9995C28.0619 35.9995 30.5526 35.8072 33.0254 35.4222C33.9067 35.2849 34.708 34.8038 35.2826 34.0664C35.8375 33.3546 36.1429 32.4477 36.1429 31.5132V23.6267C36.1429 22.6921 35.8375 21.7853 35.2826 21.0734ZM34.2649 31.5132C34.2649 32.5483 33.608 33.431 32.7369 33.5665C27.9832 34.3061 23.1629 34.3061 18.4096 33.5665H18.406C17.5349 33.4306 16.8781 32.5474 16.8781 31.5123V23.6262C16.8781 22.591 17.5349 21.7083 18.4096 21.572C20.7858 21.2022 23.1785 21.0175 25.5717 21.0175C27.9649 21.0175 30.3598 21.2026 32.7365 21.5724C33.6076 21.7079 34.2644 22.5906 34.2644 23.6258V31.5123L34.2649 31.5132Z" fill="#F27914"/>
<path d="M21.7186 24.1191C21.1999 24.1191 20.7795 24.5395 20.7795 25.0582V26.2212C20.7795 26.7399 21.1999 27.1603 21.7186 27.1603C22.2373 27.1603 22.6576 26.7399 22.6576 26.2212V25.0582C22.6576 24.5395 22.2373 24.1191 21.7186 24.1191Z" fill="#F27914"/>
<path d="M29.4244 24.1191C28.9057 24.1191 28.4854 24.5395 28.4854 25.0582V26.2212C28.4854 26.7399 28.9057 27.1603 29.4244 27.1603C29.9431 27.1603 30.3634 26.7399 30.3634 26.2212V25.0582C30.3634 24.5395 29.9431 24.1191 29.4244 24.1191Z" fill="#F27914"/>
<path d="M25.9142 17.8533C26.4189 17.7342 26.7315 17.2285 26.6124 16.7237C26.4933 16.219 25.9875 15.9064 25.4828 16.0255C24.978 16.1446 24.6654 16.6504 24.7846 17.1551C24.9037 17.6599 25.4094 17.9725 25.9142 17.8533Z" fill="#F27914"/>
<path d="M27.0101 29.9773C25.6566 30.7151 24.5271 30.1736 24.2856 30.0395C23.901 29.7287 23.3363 29.7689 23 30.1396C22.6517 30.5237 22.6812 31.118 23.0653 31.4659L23.0997 31.4972C23.1351 31.5294 23.1726 31.5585 23.2124 31.5849C23.271 31.6238 24.2216 32.2364 25.5922 32.2364C26.2786 32.2364 27.0705 32.0825 27.9085 31.626C28.3637 31.3778 28.5318 30.8072 28.2836 30.352C28.0354 29.8968 27.4649 29.7287 27.0097 29.9769L27.0101 29.9773Z" fill="#F27914"/>
</g>
<defs>
<clipPath id="clip0_289_254">
<rect width="21.1429" height="20" fill="white" transform="translate(15 16)"/>
</clipPath>
</defs>
</svg>
