<svg width="18" height="18" viewBox="0 0 18 18" fill="none" xmlns="http://www.w3.org/2000/svg">
<path d="M3 0.5H15C16.3807 0.5 17.5 1.61929 17.5 3V15C17.5 16.3807 16.3807 17.5 15 17.5H3C1.61929 17.5 0.5 16.3807 0.5 15V3C0.5 1.61929 1.61929 0.5 3 0.5Z" fill="#EDF3FF" stroke="#E0E9FC"/>
<g clip-path="url(#clip0_289_255)">
<path d="M14.4318 6.7904C14.1082 6.38485 13.6563 6.11998 13.1595 6.04472C11.9619 5.86297 10.7569 5.75943 9.55098 5.73386C9.50889 5.48964 9.29189 5.30347 9.02978 5.30347C8.76767 5.30347 8.55194 5.48841 8.50884 5.73115C7.25525 5.75132 6.00242 5.85584 4.75714 6.04472C4.26039 6.12022 3.80876 6.38485 3.4849 6.7904C3.17214 7.18218 3 7.68093 3 8.19494V12.5323C3 13.0463 3.17214 13.545 3.4849 13.9366C3.80876 14.3421 4.26039 14.607 4.7574 14.6823H4.75891C6.15237 14.894 7.55516 14.9998 8.95846 14.9998C10.362 14.9998 11.7658 14.894 13.1595 14.6823C13.6563 14.6068 14.1079 14.3421 14.4318 13.9366C14.7445 13.545 14.9167 13.0463 14.9167 12.5323V8.1947C14.9167 7.68069 14.7445 7.18193 14.4318 6.7904ZM13.8581 12.5323C13.8581 13.1016 13.4879 13.5871 12.997 13.6616C10.3176 14.0684 7.60078 14.0684 4.92172 13.6616H4.9197C4.42875 13.5869 4.05852 13.1011 4.05852 12.5318V8.19445C4.05852 7.62511 4.42875 7.13963 4.92172 7.06462C6.261 6.86123 7.6096 6.75966 8.95846 6.75966C10.3073 6.75966 11.6572 6.86147 12.9967 7.06486C13.4877 7.13938 13.8579 7.62486 13.8579 8.1942V12.5318L13.8581 12.5323Z" fill="#408CFB"/>
<path d="M6.78671 8.46558C6.49435 8.46558 6.25745 8.69676 6.25745 8.98204V9.62172C6.25745 9.90701 6.49435 10.1382 6.78671 10.1382C7.07906 10.1382 7.31597 9.90701 7.31597 9.62172V8.98204C7.31597 8.69676 7.07906 8.46558 6.78671 8.46558Z" fill="#408CFB"/>
<path d="M11.13 8.46558C10.8376 8.46558 10.6007 8.69676 10.6007 8.98204V9.62172C10.6007 9.90701 10.8376 10.1382 11.13 10.1382C11.4223 10.1382 11.6592 9.90701 11.6592 9.62172V8.98204C11.6592 8.69676 11.4223 8.46558 11.13 8.46558Z" fill="#408CFB"/>
<path d="M9.15157 5.01949C9.43606 4.95396 9.61225 4.6758 9.5451 4.39819C9.47796 4.12058 9.1929 3.94865 8.90842 4.01417C8.62393 4.0797 8.44774 4.35786 8.51489 4.63547C8.58203 4.91308 8.86708 5.08501 9.15157 5.01949Z" fill="#408CFB"/>
<path d="M9.7692 11.6875C9.00631 12.0933 8.36968 11.7955 8.23359 11.7217C8.01684 11.5507 7.69853 11.5729 7.50901 11.7768C7.31268 11.988 7.32931 12.3149 7.5458 12.5062L7.56521 12.5234C7.58512 12.5411 7.60629 12.5571 7.62872 12.5716C7.66174 12.593 8.19755 12.93 8.97002 12.93C9.35688 12.93 9.80322 12.8454 10.2755 12.5943C10.5321 12.4578 10.6269 12.1439 10.487 11.8936C10.3471 11.6432 10.0255 11.5508 9.76895 11.6872L9.7692 11.6875Z" fill="#408CFB"/>
</g>
<defs>
<clipPath id="clip0_289_255">
<rect width="11.9167" height="11" fill="white" transform="translate(3 4)"/>
</clipPath>
</defs>
</svg>
