<svg width="52" height="52" viewBox="0 0 52 52" fill="none" xmlns="http://www.w3.org/2000/svg">
<rect x="0.5" y="0.5" width="51" height="51" rx="7.5" fill="#EDF3FF" stroke="#C8D4EE"/>
<g clip-path="url(#clip0_289_251)">
<path d="M34.3733 23.2933C34.3733 23.2165 34.3636 23.1422 34.3458 23.0706C34.2917 22.3046 33.9683 21.592 33.4198 21.0439L29.3077 16.9342C28.705 16.3319 27.9038 16 27.0521 16H21.463C19.5534 16 18 17.5534 18 19.463V32.537C18 34.4466 19.5534 36 21.463 36H30.8918C32.8013 36 34.3547 34.4466 34.3547 32.537V23.4765C34.3669 23.4174 34.3733 23.356 34.3733 23.2933ZM32.14 22.324C32.1606 22.3446 32.1804 22.3665 32.1998 22.3883H29.8877C28.9762 22.3883 28.2349 21.647 28.2349 20.7354V18.4213L32.14 22.3244V22.324ZM30.8918 34.1899H21.463C20.5514 34.1899 19.8101 33.4486 19.8101 32.537V19.463C19.8101 18.5514 20.5514 17.8101 21.463 17.8101H26.4248V20.7354C26.4248 22.645 27.9782 24.1984 29.8877 24.1984H32.5446V32.537C32.5446 33.4486 31.8033 34.1899 30.8918 34.1899Z" fill="#408CFB"/>
<path d="M24.3552 28.7207H22.541C22.041 28.7207 21.636 29.1257 21.636 29.6258C21.636 30.1258 22.041 30.5308 22.541 30.5308H24.3552C24.8552 30.5308 25.2602 30.1258 25.2602 29.6258C25.2602 29.1257 24.8552 28.7207 24.3552 28.7207Z" fill="#408CFB"/>
</g>
<defs>
<clipPath id="clip0_289_251">
<rect width="16.3733" height="20" fill="white" transform="translate(18 16)"/>
</clipPath>
</defs>
</svg>
