<svg width="52" height="52" viewBox="0 0 52 52" fill="none" xmlns="http://www.w3.org/2000/svg">
<rect x="0.5" y="0.5" width="51" height="51" rx="7.5" fill="#EDF3FF" stroke="#C8D4EE"/>
<g clip-path="url(#clip0_289_253)">
<path d="M33.4102 21.0557L29.2752 16.9228C28.6797 16.3276 27.8882 16 27.0467 16H21.426C19.537 16 18 17.537 18 19.426V32.574C18 34.463 19.537 36 21.426 36H30.9081C32.7972 36 34.3341 34.463 34.3341 32.574V23.2854C34.3341 22.4431 34.0061 21.6512 33.4102 21.0557ZM32.2033 22.2634C32.2541 22.3142 32.3004 22.3679 32.3427 22.4244H29.8984C28.9508 22.4244 28.1797 21.6533 28.1797 20.7057V18.2419L32.2033 22.2634ZM30.9081 34.2927H21.426C20.4785 34.2927 19.7073 33.5215 19.7073 32.574V19.426C19.7073 18.4785 20.4785 17.7073 21.426 17.7073H26.4724V20.7057C26.4724 22.5947 28.0094 24.1317 29.8984 24.1317H32.6268V32.574C32.6268 33.5215 31.8557 34.2927 30.9081 34.2927Z" fill="#408CFB"/>
</g>
<defs>
<clipPath id="clip0_289_253">
<rect width="16.3341" height="20" fill="white" transform="translate(18 16)"/>
</clipPath>
</defs>
</svg>
