<svg width="52" height="52" viewBox="0 0 52 52" fill="none" xmlns="http://www.w3.org/2000/svg">
<rect x="0.5" y="0.5" width="51" height="51" rx="7.5" fill="#EDF3FF" stroke="#C8D4EE"/>
<g clip-path="url(#clip0_289_250)">
<path d="M32.6488 17.6268L29.0057 16.4045C28.2053 16.1362 27.3715 16 26.5276 16H25.9305C25.1573 16 24.3902 16.1146 23.6512 16.3411L19.3703 17.6508C18.6793 17.8622 18.0866 18.2813 17.6569 18.8622C17.2272 19.4431 17 20.1321 17 20.8549V25.2232C17 27.5142 17.6911 29.7195 18.9992 31.6008C20.3069 33.4821 22.1333 34.8984 24.2809 35.6963C24.8244 35.8984 25.3955 35.9996 25.9671 35.9996C26.5386 35.9996 27.1093 35.8988 27.6533 35.6963C29.8008 34.898 31.6272 33.4817 32.935 31.6008C34.2427 29.7195 34.9341 27.5142 34.9341 25.2232V20.8037C34.9341 19.3622 34.0159 18.0854 32.6492 17.6268H32.6488ZM33.2264 25.2232C33.2264 27.1642 32.6406 29.0325 31.5329 30.6264C30.4252 32.2203 28.8776 33.4199 27.0581 34.0963C26.3545 34.3577 25.5793 34.3577 24.8756 34.0963C23.0561 33.4199 21.5089 32.2203 20.4008 30.6264C19.2927 29.0325 18.7073 27.1642 18.7073 25.2232V20.8549C18.7073 20.1276 19.1744 19.4959 19.8699 19.2833L24.1504 17.9736C24.7276 17.7967 25.3264 17.7073 25.9301 17.7073H26.5272C27.1862 17.7073 27.8374 17.8134 28.4622 18.0232L32.1053 19.2455C32.7756 19.4703 33.226 20.0967 33.226 20.8037V25.2232H33.2264Z" fill="#408CFB"/>
<path d="M26.8736 29.0032H25.0606C24.589 29.0032 24.2069 29.3853 24.2069 29.8568C24.2069 30.3284 24.589 30.7105 25.0606 30.7105H26.8736C27.3451 30.7105 27.7272 30.3284 27.7272 29.8568C27.7272 29.3853 27.3451 29.0032 26.8736 29.0032Z" fill="#408CFB"/>
</g>
<defs>
<clipPath id="clip0_289_250">
<rect width="17.9337" height="20" fill="white" transform="translate(17 16)"/>
</clipPath>
</defs>
</svg>
